<?xml version="1.0" standalone="no"?>
<!DOCTYPE svg PUBLIC "-//W3C//DTD SVG 20010904//EN"
 "http://www.w3.org/TR/2001/REC-SVG-20010904/DTD/svg10.dtd">
<svg version="1.0" xmlns="http://www.w3.org/2000/svg"
 width="773.000000pt" height="773.000000pt" viewBox="0 0 773.000000 773.000000"
 preserveAspectRatio="xMidYMid meet">
<metadata>
Created by potrace 1.14, written by Peter Selinger 2001-2017
</metadata>
<g transform="translate(0.000000,773.000000) scale(0.100000,-0.100000)"
fill="#000000" stroke="none">
<path d="M3837 7724 c-1 -1 -67 -4 -147 -8 -80 -3 -161 -9 -180 -11 -19 -3
-53 -7 -75 -10 -71 -8 -119 -15 -145 -20 -14 -3 -40 -7 -59 -10 -19 -3 -42
-10 -52 -15 -12 -7 -20 -6 -24 0 -4 7 -11 8 -18 2 -7 -6 -37 -15 -67 -21 -84
-17 -90 -19 -159 -38 -55 -15 -65 -22 -67 -43 -2 -14 -6 -41 -10 -60 -3 -19
-5 -37 -4 -39 1 -2 -5 -8 -14 -13 -9 -5 -16 -14 -16 -19 0 -20 -79 -84 -127
-103 -26 -11 -66 -27 -88 -37 -22 -10 -69 -30 -105 -45 -36 -14 -83 -35 -105
-45 -66 -30 -175 -67 -169 -57 4 6 -1 6 -12 0 -11 -6 -77 -10 -147 -11 l-129
0 -66 -37 c-37 -21 -69 -40 -72 -43 -3 -4 -23 -18 -45 -32 -64 -42 -217 -165
-308 -249 -27 -25 -55 -49 -63 -53 -8 -4 -14 -15 -14 -22 0 -8 -5 -15 -11 -15
-5 0 -36 -28 -67 -62 -31 -34 -72 -77 -90 -95 -48 -51 -213 -251 -252 -308
-19 -27 -37 -52 -41 -55 -3 -3 -21 -27 -40 -55 -18 -27 -36 -52 -39 -55 -12
-11 -92 -142 -147 -240 -80 -142 -146 -281 -215 -455 -13 -33 -41 -114 -62
-180 -21 -66 -40 -127 -43 -135 -3 -8 -7 -19 -9 -25 -1 -5 -14 -57 -28 -115
-31 -122 -31 -121 -55 -265 -24 -140 -29 -173 -38 -292 -15 -182 -8 -655 11
-763 2 -14 9 -61 16 -105 6 -44 16 -100 21 -125 5 -25 11 -56 13 -70 2 -14 9
-44 15 -67 6 -23 11 -45 10 -50 -1 -4 0 -15 3 -23 9 -23 39 -132 43 -155 2
-11 15 -54 30 -95 14 -41 29 -85 32 -97 7 -32 20 -29 21 5 1 34 34 137 60 189
24 46 31 77 17 79 -58 9 -89 57 -81 126 7 57 31 86 107 130 72 41 76 53 36
117 -12 20 -22 38 -22 41 -1 3 -10 23 -22 45 -37 70 -84 235 -100 347 -10 67
-10 503 -1 583 4 33 10 85 14 115 4 44 12 61 35 82 66 61 85 158 48 235 l-21
44 32 97 c104 306 265 476 500 526 23 5 45 33 86 106 26 47 50 87 54 90 3 3
16 21 28 40 19 32 33 51 72 97 5 7 10 17 10 23 0 5 3 10 8 10 4 0 32 32 62 70
29 39 58 70 62 70 4 0 8 4 8 9 0 5 36 46 79 90 78 80 89 100 105 192 20 117
159 324 257 384 9 6 42 27 73 47 54 37 176 92 176 81 0 -3 6 -1 13 5 6 5 28
13 47 18 19 4 42 9 50 11 8 2 68 6 132 7 122 3 143 9 327 93 18 8 40 16 47 17
7 1 17 5 20 9 4 4 13 7 19 7 7 0 30 8 51 17 22 9 44 18 51 19 34 6 89 28 95
38 6 8 8 8 8 0 0 -16 162 29 174 48 7 12 3 24 -17 48 -28 33 -38 100 -15 100
6 0 9 3 5 6 -14 15 29 38 77 42 39 3 55 0 65 -12 7 -9 19 -16 26 -16 7 0 15
-6 18 -14 3 -8 36 -29 73 -46 65 -31 70 -32 173 -28 118 5 172 23 228 76 17
16 34 27 37 24 3 -3 6 0 6 6 0 7 3 11 8 10 4 -1 21 4 37 11 77 32 255 31 370
-1 22 -6 44 -11 49 -9 4 1 14 -3 21 -9 7 -6 23 -13 35 -15 13 -2 30 -11 40
-20 9 -8 21 -15 26 -15 6 0 29 -20 53 -44 46 -47 114 -85 162 -91 17 -3 37
-10 45 -16 8 -6 14 -8 14 -5 0 4 9 2 21 -4 11 -7 33 -14 47 -16 15 -3 32 -10
39 -16 7 -6 13 -7 13 -3 0 4 6 2 13 -4 8 -6 24 -13 38 -15 13 -3 26 -5 29 -6
3 -2 8 -2 13 -1 4 0 7 -4 7 -9 0 -6 6 -10 13 -10 20 0 142 -50 287 -118 30
-14 58 -25 63 -24 4 1 7 -3 7 -8 0 -6 6 -10 13 -10 6 0 50 -23 96 -50 46 -28
88 -50 93 -50 4 0 8 -4 8 -10 0 -5 5 -10 12 -10 6 0 26 -11 44 -25 18 -14 37
-25 42 -25 6 0 12 -4 14 -9 3 -7 47 -39 107 -76 9 -5 18 -13 21 -16 3 -3 25
-19 50 -36 25 -17 60 -45 77 -62 18 -17 37 -31 43 -31 5 0 10 -4 10 -10 0 -14
45 -41 77 -46 104 -15 141 -32 207 -96 26 -27 54 -48 62 -48 8 0 14 -4 14 -10
0 -5 7 -10 15 -10 14 0 28 -11 83 -63 22 -21 61 -94 69 -127 12 -51 18 -120
13 -136 -8 -21 7 -74 21 -74 5 0 9 -5 9 -11 0 -7 16 -34 35 -60 19 -27 35 -54
35 -59 0 -6 4 -10 9 -10 5 0 16 -12 24 -27 23 -47 82 -138 90 -141 4 -2 7 -10
7 -18 0 -8 5 -14 10 -14 6 0 10 -9 10 -21 0 -11 4 -17 10 -14 6 3 10 0 10 -8
0 -8 7 -20 15 -27 9 -7 13 -15 11 -18 -3 -2 8 -24 24 -48 17 -23 30 -47 30
-53 0 -6 5 -11 10 -11 6 0 10 -6 10 -14 0 -7 7 -19 15 -26 18 -15 29 -71 20
-100 -8 -25 -61 -51 -84 -42 -21 8 -29 17 -76 87 -22 33 -44 65 -50 71 -5 6
-23 28 -39 48 -32 41 -55 56 -97 63 -22 3 -29 0 -29 -11 0 -9 5 -16 12 -16 6
0 9 -2 6 -5 -3 -3 11 -23 31 -43 88 -93 181 -204 181 -216 0 -4 6 -14 13 -21
32 -37 54 -73 106 -180 50 -100 83 -185 73 -185 -4 0 -2 -4 3 -8 6 -4 24 -50
39 -102 15 -52 30 -102 33 -110 3 -8 7 -22 8 -30 1 -8 5 -28 9 -45 16 -78 20
-104 20 -151 1 -35 -4 -56 -16 -68 -23 -22 -23 -21 10 -57 36 -40 65 -94 81
-149 7 -25 16 -52 20 -60 3 -8 6 -39 6 -67 0 -29 3 -53 7 -53 4 0 5 -8 1 -17
-4 -13 -3 -15 5 -8 6 6 13 26 17 45 3 19 7 46 10 60 18 99 22 460 5 460 -3 0
-5 15 -6 33 0 17 -3 65 -7 104 -10 94 5 125 68 144 27 8 70 -18 85 -50 7 -14
17 -66 22 -116 14 -119 18 -503 7 -585 -16 -114 -21 -144 -24 -150 -2 -3 -6
-21 -9 -41 -7 -46 -65 -221 -77 -234 -5 -5 -9 -17 -9 -26 0 -10 -4 -19 -8 -21
-4 -1 -15 -19 -25 -38 -16 -34 -16 -35 6 -53 12 -10 38 -28 57 -40 53 -34 80
-81 80 -138 0 -43 -4 -53 -37 -87 l-38 -37 46 -94 c40 -80 48 -91 57 -75 5 10
10 21 10 24 1 3 3 12 6 20 13 38 47 148 51 165 2 11 13 63 25 115 12 52 24
106 26 120 3 14 9 50 14 80 6 30 12 66 15 79 2 13 7 49 11 80 3 31 8 65 10 75
18 97 25 513 12 686 -4 47 -8 85 -9 85 0 0 -2 11 -4 25 -2 14 -6 42 -9 64 -3
21 -8 57 -11 80 -3 22 -8 48 -11 57 -4 16 -9 40 -20 114 -2 16 -7 39 -11 50
-4 11 -8 22 -8 25 -11 49 -29 127 -31 135 -2 6 -5 17 -6 25 -2 8 -7 21 -11 28
-5 6 -6 16 -2 21 3 5 1 12 -5 16 -5 3 -10 15 -10 25 0 10 -5 31 -12 47 -6 15
-12 33 -12 38 -2 13 -47 147 -55 160 -3 6 -6 15 -7 22 -1 7 -9 27 -18 44 -9
18 -16 40 -16 50 0 9 -3 19 -7 21 -9 4 -53 108 -53 126 0 6 -4 12 -8 12 -9 0
-37 70 -34 83 1 4 -2 7 -6 7 -5 0 -19 24 -33 53 -13 28 -27 54 -30 57 -4 3
-19 30 -35 60 -15 30 -31 57 -35 60 -3 3 -13 19 -22 36 -9 17 -34 59 -57 92
-22 34 -40 63 -40 67 0 3 -8 13 -17 24 -10 10 -40 50 -68 90 -27 39 -53 71
-57 71 -4 0 -8 7 -8 15 0 8 -5 15 -12 15 -6 0 -9 3 -6 6 3 3 -4 15 -16 27 -11
13 -42 47 -67 77 -136 160 -480 500 -505 500 -3 0 -19 14 -36 30 -16 17 -33
30 -37 30 -4 0 -16 8 -27 18 -54 47 -109 85 -282 194 -60 38 -196 113 -272
150 -87 42 -194 89 -200 89 -3 0 -14 6 -25 13 -11 7 -38 19 -60 26 -22 7 -45
16 -51 21 -6 5 -14 6 -17 2 -4 -3 -7 -1 -7 6 0 7 -4 9 -10 6 -5 -3 -22 1 -37
8 -23 12 -269 89 -323 102 -42 10 -168 37 -190 41 -14 2 -50 10 -80 16 -30 6
-59 11 -64 9 -5 -1 -16 1 -25 5 -9 3 -41 8 -71 10 -30 3 -66 7 -80 9 -46 8
-396 25 -403 19z m-367 -269 c0 -7 -6 -18 -14 -24 -20 -17 -37 10 -27 43 3 10
41 -8 41 -19z m1360 -174 c0 -6 -8 -20 -17 -30 -16 -20 -17 -19 -30 6 -16 31
-16 40 0 57 10 12 15 11 30 -5 9 -10 17 -23 17 -28z"/>
<path d="M4076 7118 c-17 -10 -21 -33 -8 -42 5 -3 31 -8 58 -11 27 -4 53 -11
59 -16 5 -5 17 -9 26 -9 10 0 21 -9 24 -20 8 -26 37 -41 75 -38 33 3 50 16 55
45 8 50 -40 77 -155 88 -41 4 -85 8 -96 10 -12 1 -29 -2 -38 -7z"/>
<path d="M3797 6964 c-1 -1 -51 -4 -112 -7 -60 -4 -124 -11 -142 -17 -53 -19
-64 -92 -20 -129 14 -11 135 -10 240 3 15 2 27 -2 27 -8 0 -7 3 -8 8 -1 8 11
86 14 97 3 4 -4 17 -3 30 2 13 5 25 6 28 3 10 -10 77 19 87 37 24 46 -5 108
-53 111 -33 2 -188 5 -190 3z"/>
<path d="M3103 6870 c-21 -10 -48 -29 -60 -43 -25 -30 -43 -127 -24 -127 7 0
10 -4 7 -9 -8 -12 31 -59 62 -75 15 -7 43 -14 62 -14 36 -1 100 24 100 39 0 5
7 9 16 9 8 0 12 5 9 10 -3 6 -1 10 5 10 6 0 9 4 5 9 -3 5 -1 13 5 16 17 10 4
104 -17 134 -39 52 -109 69 -170 41z"/>
<path d="M4654 6797 c-27 -15 -34 -27 -34 -65 0 -42 30 -71 101 -96 29 -10 87
-35 129 -56 100 -48 138 -61 145 -49 4 5 10 7 14 4 16 -9 42 21 46 52 3 21 -3
40 -17 58 -21 27 -106 75 -133 75 -8 0 -15 5 -15 10 0 6 -5 10 -11 10 -6 0
-41 13 -77 29 -79 35 -121 43 -148 28z"/>
<path d="M2690 6688 c-36 -17 -68 -32 -71 -32 -25 -4 -169 -92 -177 -109 -27
-56 -19 -89 26 -105 23 -8 39 -6 78 11 27 12 51 24 54 27 3 3 20 12 38 19 17
8 32 18 32 24 0 6 3 7 6 4 4 -4 19 0 33 7 14 8 47 24 73 36 57 26 70 40 75 85
2 26 -2 37 -19 49 -34 24 -76 19 -148 -16z"/>
<path d="M1945 6582 c-44 -27 -95 -89 -95 -116 0 -13 7 -29 15 -36 27 -22 84
12 85 51 0 9 14 33 30 54 45 57 25 84 -35 47z"/>
<path d="M5190 6563 c-31 -11 -48 -44 -40 -79 10 -42 29 -60 108 -101 17 -9
32 -21 32 -25 0 -5 4 -7 8 -4 5 3 18 -4 30 -14 12 -11 26 -20 32 -20 5 0 10
-4 10 -10 0 -5 5 -10 10 -10 6 0 35 -18 64 -40 29 -22 58 -40 64 -40 7 0 12
-4 12 -10 0 -5 16 -20 35 -32 19 -13 35 -28 35 -33 0 -6 16 -19 35 -29 19 -10
32 -23 29 -27 -3 -5 -1 -9 5 -9 15 0 271 -255 271 -270 0 -6 5 -8 10 -5 6 3
10 -1 10 -9 0 -9 7 -16 15 -16 8 0 15 -7 15 -15 0 -9 7 -18 15 -21 8 -4 12
-10 9 -15 -3 -5 2 -9 10 -9 9 0 16 -3 16 -7 0 -12 67 -82 73 -77 3 3 8 -3 11
-13 7 -19 94 -83 114 -83 7 0 12 -4 12 -9 0 -5 9 -13 20 -16 11 -4 34 -18 50
-32 42 -35 48 -23 14 34 -15 26 -27 49 -25 51 1 2 -8 12 -21 22 -13 11 -20 19
-16 20 4 0 1 8 -7 18 -8 9 -37 49 -64 87 -130 180 -317 379 -527 560 -26 22
-53 46 -60 53 -7 6 -16 12 -20 12 -4 0 -17 9 -28 19 -29 27 -264 181 -275 181
-5 0 -11 4 -13 9 -4 12 -57 21 -78 14z"/>
<path d="M3815 6463 c-65 -18 -120 -95 -124 -171 -5 -108 67 -193 166 -197 18
-1 36 -4 39 -7 3 -4 28 5 55 19 81 42 122 114 114 197 -9 94 -78 158 -173 162
-32 2 -66 0 -77 -3z"/>
<path d="M2225 6428 c-46 -25 -125 -82 -125 -90 0 -5 -4 -7 -9 -4 -5 4 -11 3
-13 -2 -1 -4 -16 -18 -33 -31 -146 -113 -332 -303 -496 -509 -14 -17 -151
-224 -165 -248 -66 -117 -67 -119 -42 -101 13 10 30 20 38 24 8 4 21 13 29 20
7 8 39 30 70 49 57 37 141 112 141 127 0 4 10 18 23 31 12 13 29 32 37 42 90
109 283 314 296 314 2 0 16 13 31 28 16 15 53 48 83 72 30 25 59 50 63 58 5 7
12 10 18 7 5 -4 9 -2 9 3 0 5 23 23 51 42 75 49 99 76 99 114 0 56 -53 83
-105 54z"/>
<path d="M4821 6394 c-37 -26 -25 -106 17 -122 33 -13 62 -12 62 1 0 6 3 7 7
4 10 -11 32 26 33 54 0 28 -20 61 -41 65 -8 2 -24 5 -35 8 -12 2 -31 -2 -43
-10z"/>
<path d="M2834 6392 c-14 -9 -31 -44 -28 -59 1 -7 2 -20 3 -28 0 -8 12 -22 26
-31 63 -41 142 43 99 105 -15 21 -76 29 -100 13z"/>
<path d="M3265 6373 c-37 -9 -87 -55 -106 -97 -40 -92 -4 -200 84 -245 l27
-14 0 -334 0 -333 -32 -1 c-18 0 -100 -1 -183 -2 -147 -2 -150 -2 -153 -24 -2
-13 -11 -24 -20 -24 -9 -1 -86 -2 -170 -4 l-154 -2 -18 41 c-32 73 -91 124
-184 156 -79 28 -101 32 -220 34 -182 4 -297 -33 -378 -123 -38 -42 -88 -80
-88 -67 0 10 -116 -47 -181 -89 -222 -144 -386 -393 -433 -660 -12 -66 -26
-141 -32 -165 -3 -14 -7 -36 -10 -49 -3 -12 -12 -53 -20 -90 -9 -36 -18 -77
-20 -91 -3 -14 -11 -52 -19 -85 -7 -33 -11 -63 -9 -67 3 -5 1 -8 -3 -8 -5 0
-9 -8 -10 -17 -1 -10 -8 -48 -17 -86 -9 -37 -18 -79 -21 -95 -3 -15 -7 -36 -9
-47 -13 -58 -57 -248 -70 -305 -8 -36 -17 -77 -20 -92 -2 -15 -7 -31 -9 -35
-3 -5 -8 -24 -11 -43 -3 -19 -19 -96 -36 -170 -17 -74 -33 -142 -35 -150 -2
-8 -10 -45 -19 -81 -18 -77 -29 -131 -40 -191 -2 -13 -10 -45 -16 -73 -6 -27
-13 -59 -16 -70 -2 -11 -6 -31 -9 -45 -10 -47 -13 -67 -20 -121 -3 -30 -8 -62
-11 -71 -3 -10 -1 -18 5 -18 6 0 6 -11 1 -29 -4 -16 -6 -32 -3 -35 3 -3 7 -29
8 -58 1 -29 10 -85 20 -123 10 -39 18 -76 18 -82 0 -7 4 -13 9 -13 4 0 8 -7 8
-16 0 -22 65 -148 112 -219 56 -83 150 -177 233 -234 65 -45 153 -91 182 -95
7 -1 16 -5 19 -9 4 -4 17 -7 29 -7 12 0 25 -3 28 -6 15 -16 217 -23 292 -11
31 5 127 30 142 38 2 0 12 3 23 6 11 3 20 9 20 14 0 5 7 9 15 9 19 0 115 59
115 71 0 5 4 8 10 6 13 -3 137 119 179 178 54 76 58 83 107 185 57 119 59 123
84 190 11 30 25 64 30 75 12 27 70 186 75 205 2 8 17 51 33 95 17 44 45 121
62 170 17 50 37 104 43 120 7 17 12 32 12 35 1 9 57 175 60 178 2 2 25 -9 52
-23 55 -32 152 -70 203 -80 46 -10 264 -10 315 0 55 10 160 50 214 82 56 32
83 55 147 121 l52 53 243 0 c134 0 249 -1 254 -2 6 -1 15 0 20 1 24 5 135 3
141 -3 4 -3 15 -2 25 3 14 8 27 1 66 -41 69 -73 231 -179 296 -194 12 -2 40
-9 62 -15 22 -6 74 -13 115 -16 41 -3 82 -10 92 -15 11 -6 24 -6 35 0 10 6 54
17 98 26 44 10 106 30 138 46 32 16 63 26 69 23 6 -4 8 -2 5 3 -4 6 0 13 8 17
8 3 15 4 15 3 0 -14 184 -528 205 -574 8 -17 16 -43 17 -57 1 -14 6 -26 10
-26 4 0 8 -8 8 -19 0 -10 7 -24 15 -31 8 -7 12 -17 9 -22 -4 -6 0 -14 7 -19
10 -6 11 -9 2 -9 -8 0 -5 -8 7 -20 11 -11 20 -26 20 -34 0 -8 18 -57 39 -110
57 -138 65 -156 74 -156 5 0 6 -3 4 -8 -11 -18 186 -277 233 -305 14 -9 34
-24 46 -34 54 -48 184 -112 260 -127 10 -3 37 -8 59 -13 37 -9 212 -9 245 0 8
2 31 7 50 11 176 39 341 151 463 314 23 32 45 59 50 60 4 2 5 7 2 12 -3 5 1
14 8 22 22 22 102 208 90 208 -3 0 0 7 7 15 7 8 9 15 6 15 -4 0 -2 10 5 21 14
28 18 59 23 194 4 112 -6 208 -31 305 -3 14 -7 32 -9 40 -4 20 -17 84 -19 90
-1 3 -5 21 -9 40 -4 19 -21 94 -38 165 -17 72 -32 144 -35 160 -7 43 -11 60
-14 60 -1 0 -3 9 -4 20 -1 11 -8 40 -15 65 -7 25 -14 56 -17 70 -2 14 -15 70
-28 125 -12 55 -26 114 -29 130 -4 17 -8 39 -10 50 -3 11 -14 59 -25 107 -11
47 -23 101 -26 119 -3 18 -8 35 -10 39 -2 4 -7 22 -10 41 -8 47 -43 202 -49
220 -3 8 -8 25 -10 39 -4 22 -39 182 -51 235 -5 20 -34 181 -41 220 -5 36 -33
129 -54 185 -11 30 -23 63 -27 73 -3 9 -9 17 -14 17 -5 0 -9 9 -9 20 0 11 -4
20 -8 20 -5 0 -15 12 -23 28 -75 147 -281 315 -482 393 -31 12 -68 37 -92 62
-35 37 -90 80 -105 82 -3 0 -14 6 -25 12 -62 34 -283 49 -393 26 -121 -25
-229 -102 -252 -180 l-12 -40 -171 1 c-163 1 -172 2 -176 21 -2 11 -8 23 -13
26 -6 4 -83 6 -173 6 -89 0 -167 3 -172 6 -5 3 -8 145 -7 324 1 368 1 353 15
353 14 0 82 68 96 95 17 35 16 130 -1 144 -9 8 -16 19 -16 25 -1 31 -99 86
-154 86 -41 0 -91 -20 -125 -50 -18 -17 -30 -30 -25 -30 5 0 4 -4 -1 -8 -31
-22 -41 -151 -14 -168 5 -3 7 -9 5 -13 -5 -8 50 -69 77 -86 19 -11 18 9 16
-422 l-1 -253 -66 -1 c-109 -2 -196 1 -201 7 -3 3 -6 125 -6 270 0 251 -1 266
-19 280 -31 22 -73 18 -91 -10 -14 -21 -16 -66 -17 -285 l-2 -261 -23 -1 c-29
-1 -65 -1 -100 0 l-28 1 2 262 c2 301 -3 328 -61 328 -18 0 -41 -6 -52 -14
-18 -14 -19 -28 -18 -296 0 -267 -1 -281 -18 -277 -10 3 -18 2 -18 -1 0 -4
-33 -6 -72 -5 -40 1 -94 2 -120 2 l-48 1 1 153 c1 83 0 157 -1 162 -1 6 -1 14
0 20 1 5 2 85 1 177 0 104 4 168 10 168 14 0 69 61 69 76 0 7 5 14 12 16 7 3
12 29 14 67 1 55 -2 68 -30 109 -17 26 -47 55 -66 64 -33 16 -102 21 -145 11z
m-1020 -1078 c47 -6 155 -39 205 -63 43 -20 60 -36 60 -56 0 -19 -31 -21 -48
-4 -7 7 -12 9 -12 5 0 -4 -17 0 -37 8 -133 51 -336 71 -452 44 -113 -26 -108
-24 -201 -67 -30 -14 -58 -25 -61 -24 -4 1 -19 -10 -33 -23 -14 -13 -26 -22
-26 -19 0 6 -58 -33 -78 -53 -7 -7 -18 -13 -24 -13 -6 0 -9 -2 -7 -5 3 -2 -17
-28 -44 -57 -54 -58 -107 -131 -107 -147 0 -6 -5 -11 -11 -11 -5 0 -8 -4 -5
-9 3 -5 -1 -14 -9 -21 -8 -7 -12 -16 -9 -22 3 -5 1 -14 -4 -21 -9 -12 -29 -66
-37 -106 -3 -11 -7 -31 -10 -43 -10 -42 -6 -182 6 -238 6 -30 20 -74 30 -97
10 -24 17 -44 16 -46 -8 -8 134 -189 182 -232 19 -16 40 -35 46 -42 7 -6 41
-30 76 -52 35 -22 69 -44 74 -49 25 -19 158 -75 233 -97 34 -10 60 -21 57 -23
-3 -3 -27 -5 -55 -3 -46 2 -68 5 -107 16 -10 2 -34 8 -53 13 -20 5 -45 14 -58
21 -12 6 -22 9 -22 6 0 -3 -28 9 -62 26 -156 78 -276 183 -356 311 -23 38 -42
70 -43 73 0 2 -6 20 -15 40 -64 155 -66 357 -3 525 22 58 77 167 94 186 5 6
26 31 45 54 31 38 88 96 130 133 17 15 147 97 154 97 2 0 19 6 37 14 19 8 36
14 39 13 3 0 15 5 27 11 28 15 127 42 178 49 22 3 41 7 43 8 5 5 210 -3 257
-10z m-68 -236 c17 -3 26 -30 14 -42 -5 -5 -26 -11 -47 -14 -99 -13 -225 -53
-232 -73 -2 -6 -12 -10 -22 -10 -24 0 -70 -21 -70 -32 0 -4 -5 -8 -11 -8 -17
0 -80 -50 -131 -103 -60 -63 -106 -131 -118 -176 -14 -56 -27 -202 -18 -207 5
-3 6 -9 3 -14 -6 -10 26 -78 57 -122 11 -16 17 -28 13 -28 -3 0 0 -10 6 -22 7
-13 14 -34 15 -47 2 -13 5 -26 8 -28 3 -3 1 -14 -5 -24 -7 -14 -6 -17 4 -14 8
4 13 -2 13 -14 0 -65 -169 137 -182 219 -2 8 6 4 16 -10 11 -14 20 -30 20 -36
0 -7 7 -15 16 -18 13 -5 14 -4 6 7 -7 8 -9 17 -5 20 3 4 0 7 -7 7 -7 0 -10 3
-7 7 4 3 0 15 -10 25 -9 10 -13 18 -9 18 4 0 2 9 -4 21 -8 15 -15 18 -24 10
-9 -8 -13 -7 -14 2 -21 151 -19 196 12 298 43 142 187 297 332 359 93 40 184
58 279 55 50 -1 95 -4 102 -6z m-818 -1369 c62 -61 183 -150 204 -150 14 0 -1
-50 -29 -92 -22 -35 -44 -41 -64 -19 -3 3 -24 19 -47 35 -55 37 -132 112 -161
156 -19 28 -22 30 -16 10 3 -14 15 -37 25 -52 11 -14 19 -29 19 -32 0 -10 60
-92 98 -134 22 -23 36 -44 32 -47 -5 -3 -11 -19 -15 -35 -4 -16 -14 -34 -22
-39 -9 -4 -14 -14 -11 -22 3 -8 -12 -62 -33 -121 -21 -58 -35 -109 -32 -112 4
-3 0 -6 -7 -6 -7 0 -11 -3 -7 -6 3 -4 0 -23 -8 -43 -19 -50 -56 -179 -58 -202
-1 -10 -5 -19 -9 -19 -4 0 -7 -3 -7 -7 1 -5 1 -25 0 -47 -1 -33 -3 -37 -16
-26 -8 7 -15 19 -15 26 0 8 -4 14 -10 14 -5 0 -10 9 -10 20 0 11 -5 20 -12 20
-6 0 -9 3 -6 6 4 3 0 20 -7 38 -15 34 -20 56 -34 141 -10 56 -7 298 4 360 20
110 -37 -69 -65 -205 -5 -25 -11 -54 -14 -65 -11 -54 -20 -111 -18 -117 1 -5
-1 -8 -6 -8 -4 0 -8 -23 -9 -52 -1 -28 -7 -54 -12 -58 -6 -3 -9 -16 -6 -28 2
-12 -1 -22 -6 -22 -6 0 -7 -4 -4 -10 3 -5 0 -10 -7 -10 -10 0 -9 -3 2 -10 12
-8 12 -10 -3 -16 -9 -3 -15 -9 -13 -13 3 -4 1 -13 -5 -21 -7 -12 -9 -9 -10 10
-6 89 10 195 56 380 30 122 57 230 61 249 3 14 7 28 9 31 2 4 6 20 9 36 7 40
115 506 121 523 3 8 26 -19 56 -65 28 -44 81 -108 118 -144z m-320 -1010 c6
-16 16 -45 22 -62 15 -42 44 -104 70 -148 12 -19 23 -50 25 -69 l3 -33 -24 22
c-25 23 -93 145 -101 180 -2 11 -7 30 -10 43 -9 35 -11 97 -3 97 4 0 12 -13
18 -30z m4616 -22 c85 -195 131 -290 177 -367 21 -34 38 -65 38 -68 0 -4 17
-23 92 -103 18 -20 56 -50 83 -68 28 -18 58 -38 68 -45 10 -6 23 -11 29 -9 5
1 8 -3 5 -10 -8 -24 -72 -7 -157 43 -28 16 -160 143 -160 154 0 4 -14 20 -30
35 -17 16 -31 33 -32 37 0 4 -5 19 -10 33 -6 14 -11 30 -12 35 -4 12 -15 43
-26 70 -8 18 -22 60 -26 78 -1 4 -3 9 -4 12 -1 3 -3 8 -4 13 -6 24 -39 120
-47 135 -5 10 -7 22 -4 27 3 5 1 11 -5 15 -12 7 -13 25 -2 25 5 0 17 -19 27
-42z"/>
<path d="M2475 6156 c-79 -43 -151 -104 -164 -141 -12 -30 4 -83 34 -111 20
-19 36 -24 66 -22 21 1 39 6 39 10 0 4 4 7 8 6 15 -5 131 73 152 101 29 41 27
101 -5 135 -13 14 -28 27 -32 27 -38 6 -81 4 -98 -5z"/>
<path d="M5161 6153 c-34 -17 -61 -63 -56 -92 2 -9 4 -23 4 -32 1 -21 77 -95
114 -112 15 -6 27 -15 27 -18 0 -7 10 -9 68 -13 25 -3 42 0 42 7 0 6 3 7 6 4
12 -11 47 44 51 80 5 50 -29 98 -113 155 -52 36 -100 43 -143 21z"/>
<path d="M2100 5802 c-17 -6 -50 -41 -50 -54 0 -4 27 -8 60 -8 64 0 73 9 46
45 -14 20 -32 25 -56 17z"/>
<path d="M5560 5780 c-29 -29 -19 -37 42 -38 37 -1 49 1 38 8 -10 6 -11 10 -2
10 21 0 13 16 -13 28 -35 16 -42 15 -65 -8z"/>
<path d="M2623 5752 c-12 -8 -18 -31 -15 -64 3 -25 54 -24 76 1 32 36 -20 89
-61 63z"/>
<path d="M5065 5736 c-15 -23 -15 -27 0 -50 14 -21 21 -24 36 -15 10 5 19 6
19 2 1 -13 30 30 30 43 0 19 -29 44 -50 44 -11 0 -27 -11 -35 -24z"/>
<path d="M1210 5383 c-25 -8 -52 -16 -60 -18 -8 -2 -15 -4 -15 -5 0 -1 -9 -3
-20 -5 -10 -2 -51 -14 -89 -26 -61 -20 -80 -32 -136 -89 -36 -36 -72 -81 -80
-100 -7 -19 -16 -37 -19 -40 -39 -35 -160 -477 -186 -680 -3 -25 -8 -63 -11
-85 -3 -22 -8 -74 -10 -115 -2 -41 -4 -77 -5 -80 -1 -3 -1 -8 0 -12 0 -4 3
-49 6 -100 5 -93 29 -243 45 -282 8 -20 9 -20 10 -1 5 100 10 154 16 189 4 23
8 46 9 51 6 47 41 120 81 168 l23 27 -19 42 c-10 23 -17 48 -15 57 1 9 6 39
10 66 5 28 9 52 10 55 1 3 5 25 10 50 11 54 8 42 30 115 20 68 16 58 78 186
26 53 47 101 47 108 0 6 -11 16 -24 22 -30 14 -54 65 -51 110 3 43 14 66 50
99 22 21 37 25 86 26 51 0 62 4 76 24 9 13 25 32 35 42 10 10 18 21 18 24 0 4
8 14 18 23 10 9 36 38 57 66 22 27 51 59 64 71 32 28 16 35 -39 17z"/>
<path d="M3839 2879 c-95 -48 -58 -199 50 -199 20 0 47 7 59 16 28 19 52 65
47 90 -2 10 -4 26 -4 36 -1 25 -56 72 -88 74 -15 1 -44 -6 -64 -17z"/>
<path d="M4830 2809 c0 -5 5 -7 10 -4 6 3 10 8 10 11 0 2 -4 4 -10 4 -5 0 -10
-5 -10 -11z"/>
<path d="M2819 2641 c-41 -33 -16 -110 29 -94 29 10 50 34 47 51 -2 9 -4 22
-4 27 -1 6 -12 15 -26 22 -21 9 -29 8 -46 -6z"/>
<path d="M4925 2648 c-26 -15 -36 -30 -30 -45 2 -7 0 -13 -5 -13 -15 0 22 -41
45 -50 12 -5 31 -2 48 7 25 12 27 19 25 57 -2 23 -7 43 -13 44 -5 0 -19 3 -30
6 -11 3 -29 1 -40 -6z"/>
<path d="M3608 2578 c-16 -5 -28 -15 -28 -20 0 -6 -3 -8 -7 -5 -10 10 -33 -50
-33 -85 0 -87 112 -134 176 -75 87 81 3 223 -108 185z"/>
<path d="M4092 2568 c-37 -18 -41 -24 -44 -61 -3 -40 36 -147 48 -134 3 3 21
-1 39 -9 23 -9 36 -10 40 -3 5 6 12 6 23 -3 12 -10 14 -10 8 0 -6 10 4 16 25
14 3 -1 5 10 4 23 -2 13 3 26 9 28 21 8 12 116 -11 139 -28 27 -93 30 -141 6z"/>
<path d="M4585 2512 c-11 -2 -27 -10 -36 -18 -9 -8 -18 -12 -21 -9 -3 3 -13
-6 -22 -19 -9 -15 -12 -27 -6 -31 5 -3 8 -20 6 -37 -3 -24 4 -41 27 -69 29
-34 34 -36 75 -32 25 2 53 8 63 14 26 14 47 59 44 94 -2 17 -3 35 -4 41 -3 38
-76 76 -126 66z"/>
<path d="M3102 2485 c-66 -55 -40 -160 46 -184 64 -19 140 49 127 114 -2 11
-4 25 -4 32 -1 7 -12 24 -26 38 -36 35 -101 35 -143 0z"/>
<path d="M4009 2508 c-1 -2 -2 -15 -3 -29 -1 -19 2 -25 12 -22 9 4 10 9 3 16
-5 5 -7 16 -4 23 4 11 -3 21 -8 12z"/>
<path d="M4487 2504 c7 -3 9 -13 6 -22 -5 -13 -3 -14 7 -5 14 13 5 33 -13 32
-9 0 -9 -2 0 -5z"/>
<path d="M4015 2390 c-3 -5 -5 -10 -3 -11 33 -8 38 -7 27 7 -14 17 -16 17 -24
4z"/>
<path d="M2574 2359 c-36 -18 -45 -52 -26 -90 9 -19 21 -33 25 -31 4 2 19 -6
34 -18 14 -11 32 -20 39 -20 8 0 14 -4 14 -10 0 -5 7 -10 15 -10 13 0 78 -32
100 -50 6 -5 14 -8 18 -8 4 0 40 -14 80 -30 71 -29 103 -41 112 -42 3 -1 21
-8 42 -16 20 -9 44 -17 52 -19 9 -2 45 -11 80 -20 35 -9 76 -18 90 -20 14 -3
58 -12 96 -20 39 -9 86 -17 106 -19 19 -1 40 -6 46 -9 6 -4 22 -7 34 -6 13 0
44 -2 69 -6 25 -4 67 -7 94 -7 41 -1 53 4 72 25 12 14 24 24 26 21 15 -15 -8
65 -24 83 -20 21 -27 23 -188 39 -77 7 -122 14 -225 34 -229 45 -341 83 -600
205 -107 51 -147 60 -181 44z"/>
<path d="M5066 2363 c-11 -3 -26 -12 -34 -20 -8 -8 -21 -12 -28 -9 -8 3 -14 2
-14 -3 0 -4 -10 -12 -21 -18 -29 -12 -36 -75 -14 -109 12 -19 24 -24 55 -24
50 0 147 36 177 66 29 29 31 84 5 107 -18 17 -81 21 -126 10z"/>
<path d="M3868 2319 c-23 -13 -23 -50 0 -76 16 -19 21 -20 48 -8 17 7 33 22
36 32 11 42 -44 76 -84 52z"/>
<path d="M3990 2313 c0 -15 -2 -16 -10 -3 -7 12 -9 10 -7 -8 2 -27 13 -28 27
-3 7 13 7 22 0 26 -5 3 -10 -2 -10 -12z"/>
<path d="M4500 2310 c0 -5 5 -10 11 -10 5 0 7 5 4 10 -3 6 -8 10 -11 10 -2 0
-4 -4 -4 -10z"/>
<path d="M4676 2288 c3 -5 10 -6 15 -3 13 9 11 12 -6 12 -8 0 -12 -4 -9 -9z"/>
<path d="M4886 2257 c3 -10 9 -15 12 -12 3 3 0 11 -7 18 -10 9 -11 8 -5 -6z"/>
<path d="M3977 2238 c-8 -30 -1 -35 12 -9 6 11 7 22 2 25 -5 3 -11 -4 -14 -16z"/>
<path d="M4825 2180 c-21 -41 -19 -65 10 -80 13 -7 22 -17 19 -22 -3 -4 10 0
28 10 66 37 60 122 -8 122 -27 0 -37 -6 -49 -30z"/>
<path d="M4337 2094 c-4 -4 -49 -9 -255 -27 -39 -4 -85 -36 -85 -60 0 -9 -5
-17 -11 -17 -6 0 -4 -5 4 -10 13 -9 13 -10 0 -10 -12 -1 -12 -3 2 -11 11 -6
15 -16 11 -26 -5 -12 -3 -14 7 -8 9 6 11 4 6 -4 -5 -7 -15 -10 -25 -7 -14 5
-13 4 2 -8 9 -7 17 -17 17 -22 0 -5 11 -9 26 -9 l25 0 -22 18 c-24 19 -14 22
25 7 16 -6 26 -6 26 0 0 6 10 6 26 0 18 -7 23 -7 18 1 -5 8 4 10 30 7 21 -2
36 0 36 7 1 5 7 -1 15 -15 8 -14 14 -19 15 -12 0 7 5 10 12 6 7 -4 8 -3 4 5
-4 6 -12 9 -17 6 -5 -4 -9 -2 -9 3 0 5 11 10 25 10 14 0 25 -4 25 -9 0 -14 33
-10 56 6 12 8 24 11 28 8 3 -3 6 -1 6 5 0 7 8 12 19 12 23 0 45 25 35 41 -4 7
-3 9 4 5 6 -3 13 -2 17 4 3 5 1 10 -6 10 -6 0 -9 8 -6 20 3 11 1 20 -5 20 -5
0 -7 4 -4 9 9 15 -64 58 -77 45z m-10 -170 c-8 -8 -48 -13 -43 -6 2 4 14 8 26
9 12 1 20 0 17 -3z"/>
<path d="M4009 2073 c-13 -17 -13 -17 6 -3 11 8 22 16 24 17 2 2 0 3 -6 3 -6
0 -17 -8 -24 -17z"/>
<path d="M5180 2048 c0 -11 -6 -16 -20 -13 -11 2 -26 -2 -34 -10 -7 -8 -16
-12 -19 -9 -3 3 -17 -7 -31 -21 -30 -30 -35 -87 -11 -119 22 -29 63 -25 147
17 80 40 107 74 86 110 -12 23 -86 58 -94 45 -4 -6 -10 -5 -15 3 -7 11 -9 10
-9 -3z"/>
<path d="M2487 2018 c-32 -19 -37 -27 -35 -52 3 -35 44 -66 148 -110 36 -16
90 -40 120 -53 49 -22 157 -66 170 -68 3 -1 57 -18 120 -38 63 -20 131 -38
150 -39 19 -2 37 -6 40 -9 6 -7 204 -46 275 -54 90 -10 158 -15 256 -19 53 -2
102 -6 108 -10 6 -4 11 -4 11 1 0 4 39 8 88 9 137 1 302 13 322 24 51 27 66
99 28 131 -11 11 -26 19 -32 20 -25 3 -64 1 -106 -5 -25 -4 -65 -8 -90 -10
-25 -2 -49 -5 -55 -6 -5 -1 -12 -2 -15 -1 -17 7 -203 5 -207 -2 -2 -4 -8 -5
-13 -2 -4 2 -39 7 -76 10 -163 11 -305 32 -474 70 -14 3 -37 7 -52 10 -15 3
-39 10 -53 15 -14 5 -36 12 -48 14 -67 13 -254 85 -387 148 -108 51 -143 56
-193 26z"/>
<path d="M3810 1931 c0 -7 -4 -10 -8 -7 -5 3 -9 -1 -9 -9 0 -8 4 -15 8 -15 9
0 21 31 14 38 -3 3 -5 0 -5 -7z"/>
<path d="M4725 1849 c-33 -4 -73 -6 -90 -4 -22 4 -25 3 -10 -3 17 -8 14 -11
-23 -27 -26 -12 -41 -24 -38 -32 3 -7 2 -13 -2 -13 -8 0 -6 -55 3 -87 8 -25
31 -37 41 -21 4 6 3 8 -4 4 -6 -3 -13 -2 -16 3 -6 10 12 10 29 0 11 -7 24 -5
73 10 17 5 32 7 32 4 0 -3 6 -1 13 4 6 6 22 9 35 8 12 -1 22 2 22 7 0 4 5 8
11 8 5 0 7 -5 3 -11 -4 -8 0 -8 15 0 11 7 21 14 21 17 0 3 -4 2 -10 -1 -5 -3
-10 -1 -10 4 0 6 7 11 16 11 8 0 12 5 9 10 -3 6 -2 10 3 10 15 0 3 72 -15 89
-22 19 -32 20 -108 10z"/>
<path d="M5265 1720 c-22 -10 -75 -35 -119 -55 -43 -20 -95 -42 -115 -49 -20
-7 -76 -28 -126 -46 -81 -29 -339 -100 -411 -114 -16 -3 -40 -7 -54 -10 -59
-12 -169 -28 -220 -31 -30 -3 -77 -7 -105 -10 -54 -6 -407 -7 -465 -1 -124 12
-176 19 -260 32 -52 9 -108 18 -125 20 -16 3 -48 10 -70 16 -22 5 -47 11 -55
13 -19 4 -142 35 -155 39 -5 2 -13 4 -17 5 -4 1 -63 21 -130 45 -124 44 -156
57 -281 115 -37 17 -83 31 -103 31 -43 0 -144 -46 -144 -66 0 -7 18 -25 40
-39 82 -52 330 -170 330 -158 0 3 8 -1 18 -9 9 -9 28 -18 42 -21 33 -7 152
-50 168 -61 7 -4 16 -6 19 -3 2 3 24 -1 46 -10 23 -8 51 -16 62 -19 11 -2 93
-19 182 -38 231 -49 338 -59 653 -60 181 0 415 8 415 14 0 3 32 8 94 14 36 4
68 9 72 12 4 2 27 7 51 10 24 3 79 15 123 26 44 11 87 21 95 22 8 2 35 9 60
15 25 7 52 15 60 16 67 15 280 100 405 163 133 66 145 73 184 103 l34 27 -26
22 c-34 30 -107 62 -107 48 0 -7 -4 -7 -12 0 -9 7 -25 5 -53 -8z"/>
<path d="M4590 1532 c0 -4 9 -8 19 -8 11 0 17 4 15 8 -3 4 -12 8 -20 8 -8 0
-14 -4 -14 -8z"/>
<path d="M2130 1448 c-14 -11 -34 -27 -45 -36 -11 -9 -45 -37 -75 -62 -30 -25
-57 -47 -60 -51 -3 -3 -11 -8 -19 -10 -11 -4 -11 -7 2 -19 31 -30 54 -47 98
-71 24 -13 46 -27 49 -30 5 -7 221 -123 230 -124 3 -1 23 -10 45 -22 64 -33
318 -135 345 -138 3 0 19 -6 35 -12 31 -13 235 -72 270 -79 32 -6 60 -12 60
-14 0 -1 9 -3 20 -5 26 -5 94 -15 120 -19 11 -2 31 -6 45 -9 30 -7 106 -18
175 -23 28 -3 82 -8 120 -11 158 -15 745 -7 815 12 8 2 39 7 69 10 52 7 67 9
121 20 27 5 83 15 115 21 29 4 54 10 105 24 25 7 54 14 66 16 12 2 40 11 63
19 23 8 45 14 49 13 4 -1 20 4 35 10 16 7 34 12 42 12 8 0 17 5 20 10 3 6 15
10 26 10 55 0 568 238 629 292 15 14 44 32 70 44 8 4 17 10 20 14 3 3 15 13
28 22 23 15 23 16 -55 80 -43 35 -94 79 -113 96 -40 37 -43 37 -143 -22 -135
-79 -340 -171 -522 -236 -94 -33 -292 -89 -335 -94 -14 -2 -45 -8 -70 -14 -71
-17 -336 -52 -440 -58 -127 -8 -423 -12 -434 -6 -4 2 -38 6 -75 7 -69 3 -162
11 -221 20 -19 3 -51 8 -70 10 -133 17 -313 57 -450 101 -30 9 -62 18 -70 19
-8 1 -26 7 -40 13 -14 6 -79 32 -145 58 -116 46 -312 140 -405 194 -66 38 -73
40 -100 18z"/>
<path d="M1612 1140 c-28 -26 -28 -67 -1 -96 17 -18 26 -21 51 -13 40 11 58
37 52 74 -9 55 -62 72 -102 35z"/>
<path d="M6091 1143 c-25 -22 -34 -65 -18 -87 7 -9 26 -20 44 -25 26 -8 35 -6
52 13 31 33 29 89 -4 104 -35 16 -49 15 -74 -5z"/>
<path d="M1843 1050 c-31 -13 -46 -46 -38 -86 7 -38 29 -54 74 -54 72 0 99
109 35 139 -29 13 -41 13 -71 1z"/>
<path d="M5856 1039 c-64 -50 -4 -155 71 -124 38 16 57 48 49 81 -16 62 -71
82 -120 43z"/>
<path d="M3677 293 c-4 -3 -107 -7 -230 -9 -294 -3 -715 -13 -852 -20 -60 -3
-168 -7 -240 -10 -208 -6 -343 -12 -450 -18 -55 -4 -145 -9 -200 -11 -55 -3
-127 -8 -160 -10 -33 -2 -107 -6 -165 -10 -58 -3 -127 -8 -155 -11 -27 -2 -79
-7 -115 -9 -36 -3 -85 -7 -110 -11 -25 -3 -67 -7 -95 -9 -27 -2 -50 -4 -50 -5
0 -1 -27 -7 -62 -14 -39 -7 -16 -23 43 -30 130 -17 216 -23 549 -41 50 -3 124
-7 165 -10 41 -3 121 -7 176 -9 56 -2 106 -6 112 -10 6 -3 13 -2 17 4 4 7 12
7 26 0 13 -8 19 -7 19 0 0 6 5 8 13 3 6 -4 57 -8 112 -10 55 -1 168 -4 250 -7
211 -8 532 -16 788 -21 121 -2 221 -6 225 -9 3 -3 11 -1 19 5 9 9 17 8 27 0
10 -8 16 -9 21 -1 4 6 13 7 23 2 12 -6 776 -8 932 -2 8 0 24 -1 35 -4 11 -2
25 -1 30 3 17 9 35 10 41 0 3 -5 13 -5 25 1 10 6 19 7 19 2 0 -4 15 -7 33 -5
17 2 38 4 45 3 6 0 18 0 25 -1 24 -1 525 11 657 16 74 3 203 7 285 10 220 8
239 9 252 18 6 4 14 4 17 -1 3 -5 31 -7 63 -5 32 2 67 3 78 3 24 -1 30 -1 70
3 17 1 36 -2 43 -7 7 -5 12 -5 12 1 0 5 37 10 83 12 96 3 212 9 212 11 0 1
167 9 275 13 30 1 60 5 65 9 6 4 17 3 24 -2 8 -4 28 -4 45 0 17 5 63 11 101
15 39 3 84 9 100 12 17 3 36 6 43 6 6 0 12 6 12 12 0 11 -18 15 -135 30 -68 9
-124 15 -195 20 -41 2 -75 5 -75 5 0 2 -106 9 -177 12 -43 2 -78 7 -78 12 0 5
-6 3 -13 -3 -8 -6 -17 -8 -20 -4 -4 3 -40 7 -79 8 -66 2 -139 6 -384 21 -45 3
-140 7 -210 10 -71 2 -174 7 -229 9 -228 11 -333 14 -595 21 -151 4 -336 8
-410 8 -78 1 -138 5 -142 11 -5 7 -8 7 -8 0 0 -12 -170 -13 -188 -1 -7 4 -12
4 -12 -1 0 -9 -121 -8 -145 1 -8 3 -15 2 -15 -2 0 -9 -193 -9 -201 1 -3 4 -8
4 -12 0z"/>
</g>
</svg>
